<svg width="65" height="16" viewBox="0 0 65 16" fill="none" xmlns="http://www.w3.org/2000/svg">
<g clip-path="url(#clip0_853_2949)">
<path d="M24.95 2.45014C25.1274 2.53761 25.3226 2.583 25.5204 2.58278C25.7465 2.58513 25.9687 2.52428 26.1621 2.4071C26.3554 2.28992 26.5121 2.12107 26.6147 1.91957C26.7242 1.71571 26.7812 1.48777 26.7805 1.25636C26.7803 1.04273 26.7255 0.832697 26.6213 0.646202C26.5218 0.457286 26.3636 0.305941 26.1703 0.215114C26.0069 0.114488 25.8185 0.0616386 25.6265 0.0625753C25.3931 0.0600303 25.1637 0.122007 24.9633 0.241642C24.7619 0.357945 24.5946 0.525182 24.4782 0.726567C24.3618 0.927943 24.3003 1.15639 24.3001 1.389C24.2953 1.60114 24.3505 1.81034 24.4593 1.99252C24.5694 2.19384 24.7415 2.3543 24.95 2.45014Z" fill="#FFD300"/>
<path d="M16.8124 6.52304C16.8124 4.76553 15.3865 3.61816 13.2974 3.61816C11.3077 3.61816 9.24512 5.0507 9.24512 8.26065C9.24512 10.7079 10.7175 12.5052 13.2244 12.5052C14.4867 12.4944 15.6969 12.0008 16.6068 11.1257C16.6068 11.1257 16.3349 10.0712 15.5987 10.0712C15.2502 10.0993 14.9102 10.1938 14.5973 10.3498C14.2074 10.5173 13.788 10.6053 13.3637 10.6084C13.1133 10.6369 12.8597 10.6102 12.6207 10.5305C12.3817 10.4507 12.163 10.3198 11.9798 10.1467C11.7967 9.97365 11.6535 9.76266 11.5603 9.52855C11.4671 9.29444 11.4262 9.04283 11.4404 8.79122C12.0566 8.92444 12.6872 8.98015 13.3172 8.95703C16.1492 8.97029 16.8124 7.76987 16.8124 6.52304ZM13.3769 5.52159C14.3386 5.52159 14.8028 6.04553 14.8028 6.52304C14.8028 7.10003 14.2922 7.45816 13.3769 7.45816C12.7582 7.49232 12.1381 7.42741 11.5398 7.26583C11.5414 7.0293 11.5907 6.79552 11.6847 6.57848C11.7788 6.36144 11.9156 6.16563 12.0872 6.00276C12.2588 5.83989 12.4614 5.71333 12.683 5.63064C12.9046 5.54796 13.1407 5.51087 13.3769 5.52159Z" fill="#FFD300"/>
<path d="M22.0126 10.6211C21.6647 10.6116 21.3285 10.4932 21.0512 10.2826C20.7741 10.0721 20.5698 9.77993 20.4674 9.44724C20.3575 9.0004 20.3062 8.54113 20.3148 8.08102V5.42818H21.0178C21.2624 5.44662 21.5079 5.41102 21.7372 5.32392C21.9664 5.2368 22.1736 5.10031 22.3442 4.92413C22.6656 4.55915 22.832 4.08339 22.8085 3.59771H20.3281V2.43045C20.3281 2.05905 20.3281 1.76724 20.3281 1.53512C20.3281 1.30299 20.3281 1.13056 20.3281 0.997913C20.333 0.880243 20.344 0.762912 20.3612 0.64641C19.7522 0.606128 19.1478 0.777121 18.6502 1.13056C18.4378 1.33391 18.2743 1.58283 18.172 1.85854C18.0698 2.13426 18.0315 2.42959 18.0599 2.72227V8.55191C18.0599 10.9395 19.1874 12.4914 21.376 12.4914C22.4305 12.4914 23.2197 11.921 23.2197 11.0456C23.2197 10.8509 23.1951 10.6571 23.1467 10.4686C22.7771 10.5694 22.3957 10.6207 22.0126 10.6211Z" fill="#FFD300"/>
<path d="M27.4304 10.7272C26.9595 10.7272 26.6478 10.3824 26.6478 9.80537V5.59397C26.6478 5.22257 26.6478 4.93076 26.6478 4.692C26.6478 4.45325 26.6478 4.28744 26.6478 4.1548C26.6478 4.02216 26.6478 3.88951 26.6876 3.80329C26.07 3.76065 25.4565 3.93158 24.95 4.28744C24.7376 4.4908 24.5741 4.73971 24.4718 5.01544C24.3696 5.29115 24.3313 5.58647 24.3597 5.87915V10.1635C24.3597 11.7022 25.3346 12.5511 26.5682 12.5046C27.3375 12.4649 28.0206 12.1067 28.0206 11.2777C28.0194 11.0685 27.9995 10.8599 27.961 10.6543C27.7879 10.7013 27.6096 10.7257 27.4304 10.7272Z" fill="#FFD300"/>
<path d="M32.9555 3.81646C32.4801 3.81442 32.0059 3.86784 31.5429 3.97563C31.0764 4.08085 30.6378 4.28434 30.2562 4.57252C29.8514 4.90092 29.5346 5.32484 29.3344 5.8061C29.0677 6.45078 28.941 7.14479 28.963 7.84216V10.2496C28.9195 10.5661 28.9451 10.8881 29.0378 11.1938C29.1305 11.4994 29.2883 11.7814 29.5002 12.0204C30.0327 12.357 30.6658 12.4977 31.2908 12.4183C31.2908 12.3454 31.2908 12.1331 31.2908 11.9872C31.2818 11.8082 31.2818 11.629 31.2908 11.45C31.2908 11.2179 31.2908 10.9195 31.2908 10.5481V7.44423C31.2908 6.7147 31.4036 5.77957 32.6769 5.67346C33.3932 5.61377 34.0034 5.34185 34.0034 4.546C33.9981 4.29789 33.9556 4.05197 33.8774 3.81646H32.9555Z" fill="#FFD300"/>
<path d="M47.7122 3.81648C47.2367 3.81407 46.7626 3.8675 46.2996 3.97566C45.8281 4.08992 45.3869 4.30486 45.0063 4.60571C44.5997 4.93233 44.2825 5.35675 44.0845 5.83928C43.8178 6.48397 43.6911 7.17798 43.713 7.87534V10.2828C43.6683 10.5992 43.6932 10.9217 43.7859 11.2276C43.8788 11.5335 44.0372 11.8153 44.2503 12.0536C44.7828 12.3902 45.4159 12.5308 46.0409 12.4515C46.0409 12.3786 46.0409 12.1663 46.0409 12.0204C46.0319 11.8414 46.0319 11.6622 46.0409 11.4832C46.0409 11.2511 46.0409 10.9526 46.0409 10.5813V7.47742C46.0409 6.74788 46.1603 5.81276 47.4337 5.70665C48.1433 5.64696 48.7601 5.37504 48.7601 4.57919C48.7556 4.33043 48.7109 4.08406 48.6275 3.84964L47.7122 3.81648Z" fill="white"/>
<path d="M4.2117 3.61816C1.59864 3.61816 0.232422 5.46189 0.232422 7.71019C0.232422 9.78604 1.49253 11.6895 3.76734 11.6895C4.50427 11.71 5.22574 11.4758 5.81004 11.0262V12.0675C5.81004 13.2546 5.35242 14.0571 4.16527 14.0571C3.67949 14.0538 3.20171 13.9332 2.77253 13.7056C2.48284 13.5133 2.15464 13.3865 1.81087 13.3342C0.922163 13.3342 0.683406 14.4352 0.683406 14.4484C1.129 14.9223 1.66623 15.3007 2.26247 15.5605C2.85873 15.8205 3.50158 15.9566 4.15201 15.9605C6.66558 15.9605 8.05833 14.475 8.05833 11.5369V8.08822C8.05833 5.44864 6.87118 3.61816 4.2117 3.61816ZM4.2117 9.72635C3.23677 9.72635 2.47408 9.10293 2.47408 7.73671C2.47408 6.27102 3.25004 5.52159 4.2117 5.52159C5.17335 5.52159 5.84983 6.09195 5.84983 7.6306C5.84983 9.16925 5.08714 9.72635 4.19843 9.72635H4.2117Z" fill="#FFD300"/>
<path d="M42.4454 9.41382V7.42418C42.4454 4.66522 40.9664 3.59082 38.8309 3.59082C36.8413 3.59082 35.7271 4.50604 35.7271 5.67993V6.34314H35.8067C36.1634 5.99854 36.5888 5.73302 37.055 5.56389C37.5212 5.39476 38.0179 5.32583 38.5126 5.3616C39.7793 5.3616 40.3497 5.72636 40.3497 6.92678V7.03952H39.6069C38.4494 6.94743 37.2917 7.21369 36.2908 7.80221C35.9856 8.01742 35.7389 8.30542 35.5733 8.64018C35.4077 8.97494 35.3283 9.34567 35.3424 9.7189C35.3424 11.3305 36.828 12.4248 38.7646 12.4248H39.189C39.6046 12.4588 40.0227 12.4061 40.4168 12.2701C40.8109 12.1341 41.1725 11.9177 41.4786 11.6346C41.7847 11.3516 42.0287 11.008 42.1951 10.6257C42.3616 10.2434 42.4468 9.83073 42.4454 9.41382ZM40.3696 9.41382C40.3922 9.59695 40.3721 9.78281 40.3108 9.95682C40.2495 10.1308 40.1487 10.2883 40.0164 10.4168C39.884 10.5453 39.7236 10.6414 39.5478 10.6975C39.3721 10.7537 39.1857 10.7683 39.0033 10.7402C38.0549 10.7402 37.531 10.3556 37.531 9.6791C37.531 8.86998 38.1942 8.59807 39.6069 8.59807H40.3629L40.3696 9.41382Z" fill="white"/>
<path d="M56.3664 9.41381V7.42418C56.3664 4.66522 54.8941 3.59082 52.7585 3.59082C50.7689 3.59082 49.6481 4.50604 49.6481 5.67993V6.34314H49.7277C50.0861 5.99905 50.5127 5.73392 50.9799 5.56486C51.4471 5.39579 51.9446 5.32655 52.4402 5.3616C53.7069 5.3616 54.2773 5.72636 54.2773 6.92678V7.03951H53.5345C52.3771 6.94743 51.2193 7.21369 50.2184 7.80221C49.9111 8.01576 49.6625 8.30335 49.4956 8.63835C49.3287 8.97327 49.2488 9.34492 49.2634 9.71889C49.2634 11.3305 50.7556 12.4248 52.6856 12.4248H53.1167C53.5319 12.4589 53.9497 12.4061 54.3435 12.27C54.7372 12.134 55.0984 11.9174 55.404 11.6343C55.7096 11.3511 55.953 11.0075 56.1187 10.6253C56.2843 10.243 56.3687 9.83048 56.3664 9.41381ZM54.2906 9.41381C54.3132 9.59338 54.2945 9.77576 54.2358 9.94704C54.1772 10.1183 54.0802 10.2739 53.9522 10.4019C53.8242 10.5298 53.6686 10.6269 53.4974 10.6855C53.3261 10.7442 53.1437 10.7629 52.9641 10.7402C52.0157 10.7402 51.4918 10.3556 51.4918 9.6791C51.4918 8.86998 52.155 8.59806 53.5677 8.59806H54.2906V9.41381Z" fill="white"/>
<path d="M61.7788 12.4257C62.4341 12.463 63.0844 12.2911 63.6358 11.9349C63.8442 11.7922 64.014 11.5998 64.1297 11.3752C64.2455 11.1508 64.3036 10.9009 64.299 10.6483V9.68663H64.2393C64.0279 9.93484 63.7527 10.1205 63.4434 10.2238C62.9843 10.4157 62.4879 10.5019 61.991 10.4759C61.6703 10.489 61.3507 10.4324 61.0541 10.3099C60.7575 10.1874 60.4912 10.0018 60.2733 9.76621C59.8215 9.24253 59.5845 8.56721 59.6101 7.87606C59.6177 7.56833 59.6868 7.26516 59.8133 6.98452C59.9398 6.70387 60.1212 6.45136 60.3467 6.24186C60.5723 6.03235 60.8375 5.8701 61.1267 5.76464C61.4159 5.65917 61.7233 5.61263 62.0308 5.62777C62.5036 5.60886 62.9747 5.69493 63.4103 5.87979C63.6757 6.00205 63.9215 6.16297 64.1398 6.3573C64.1546 6.36839 64.1721 6.37514 64.1906 6.37679C64.209 6.37845 64.2274 6.37496 64.244 6.3667C64.2605 6.35843 64.2744 6.34574 64.2841 6.33002C64.2938 6.3143 64.299 6.2962 64.299 6.27773V5.51502C64.3053 5.27321 64.2506 5.03372 64.1398 4.81866C64.0228 4.58372 63.8552 4.3776 63.649 4.21514C63.1737 3.86437 62.5949 3.68231 62.0043 3.69783C61.4012 3.6602 60.7968 3.7496 60.2304 3.96026C59.664 4.17091 59.1482 4.49811 58.7162 4.9207C58.2842 5.34329 57.9458 5.85185 57.7227 6.41349C57.4997 6.97513 57.3971 7.57737 57.4215 8.18114C57.4135 8.77024 57.5334 9.35403 57.773 9.89222C58.1322 10.6505 58.6994 11.2912 59.4086 11.7397C60.1178 12.1882 60.9397 12.4261 61.7788 12.4257ZM61.7788 15.5494C62.096 15.5425 62.3976 15.4101 62.6176 15.1815C62.8375 14.9529 62.958 14.6464 62.9527 14.3291C62.9493 14.038 62.8336 13.7596 62.6297 13.5519C62.4257 13.3442 62.1493 13.2235 61.8584 13.2149C61.5423 13.2369 61.2466 13.3791 61.0321 13.6121C60.8175 13.8452 60.7002 14.1516 60.7044 14.4684C60.6963 14.6147 60.7197 14.7611 60.7729 14.8977C60.8261 15.0343 60.9079 15.158 61.0128 15.2603C61.1176 15.3626 61.2432 15.4415 61.3811 15.4913C61.5189 15.5412 61.6658 15.561 61.8119 15.5494H61.7788Z" fill="white"/>
</g>
<defs>
<clipPath id="clip0_853_2949">
<rect width="64.32" height="16" fill="white" transform="translate(0.232422)"/>
</clipPath>
</defs>
</svg>
